REM MD5 a39dae6012957c2a73a6305938538090
FILE "Euro Demo 17 (Europe).bin" BINARY
  TRACK 01 MODE2/2352
    INDEX 01 00:00:00
  TRACK 02 AUDIO
    INDEX 00 25:27:61
    INDEX 01 25:29:61
  TRACK 03 AUDIO
    INDEX 00 29:18:11
    INDEX 01 29:20:11
REM LEADOUT 32:30:20
